HIERARCHY
ROOT Hips
{
	OFFSET -3.958830 18.904000 13.208200
	CHANNELS 6 Xposition Yposition Zposition Zrotation Yrotation Xrotation 
	JOINT LHipJoint
	{
		OFFSET 0.000000 0.000000 0.000000
		CHANNELS 3 Zrotation Yrotation Xrotation
		JOINT LeftUpLeg
		{
			OFFSET 1.800000 -1.400000 0.085000
			CHANNELS 3 Zrotation Yrotation Xrotation
			JOINT LeftLeg
			{
				OFFSET 2.215000 -6.000000 0.000000
				CHANNELS 3 Zrotation Yrotation Xrotation
				JOINT LeftFoot
				{
					OFFSET 2.500000 -6.900000 0.000000
					CHANNELS 3 Zrotation Yrotation Xrotation
					JOINT LeftToeBase
					{
						OFFSET 0.200000 -0.500000 1.950000
						CHANNELS 3 Zrotation Yrotation Xrotation
						End Site
						{
							OFFSET 0.000000 0.000000 0.000000
						}
					}
				}
			}
		}
	}
	JOINT RHipJoint
	{
		OFFSET 0.000000 0.000000 0.000000
		CHANNELS 3 Zrotation Yrotation Xrotation
		JOINT RightUpLeg
		{
			OFFSET -1.800000 -1.400000 0.085000
			CHANNELS 3 Zrotation Yrotation Xrotation
			JOINT RightLeg
			{
				OFFSET -2.215000 -6.000000 0.000000
				CHANNELS 3 Zrotation Yrotation Xrotation
				JOINT RightFoot
				{
					OFFSET -2.500000 -6.900000 0.000000
					CHANNELS 3 Zrotation Yrotation Xrotation
					JOINT RightToeBase
					{
						OFFSET -0.200000 -0.500000 1.950000
						CHANNELS 3 Zrotation Yrotation Xrotation
						End Site
						{
							OFFSET 0.000000 0.000000 0.000000
						}
					}
				}
			}
		}
	}
	JOINT LowerBack
	{
		OFFSET 0.000000 0.000000 0.000000
		CHANNELS 3 Zrotation Yrotation Xrotation
		JOINT Spine
		{
			OFFSET -0.087000 1.940000 -0.288900
			CHANNELS 3 Zrotation Yrotation Xrotation
			JOINT Spine1
			{
				OFFSET 0.000000 1.950000 0.060000
				CHANNELS 3 Zrotation Yrotation Xrotation
				JOINT Neck
				{
					OFFSET 0.000000 0.000000 0.000000
					CHANNELS 3 Zrotation Yrotation Xrotation
					JOINT Neck1
					{
						OFFSET 0.000000 1.600000 0.340000
						CHANNELS 3 Zrotation Yrotation Xrotation
						JOINT Head
						{
							OFFSET 0.000000 1.667000 -0.240000
							CHANNELS 3 Zrotation Yrotation Xrotation
							End Site
							{
								OFFSET 0.000000 0.000000 0.000000
							}
						}
					}
				}
				JOINT LeftShoulder
				{
					OFFSET 0.000000 0.000000 0.000000
					CHANNELS 3 Zrotation Yrotation Xrotation
					JOINT LeftArm
					{
						OFFSET 2.700000 1.550000 -0.730000
						CHANNELS 3 Zrotation Yrotation Xrotation
						JOINT LeftForeArm
						{
							OFFSET 5.450000 0.000000 0.000000
							CHANNELS 3 Zrotation Yrotation Xrotation
							JOINT LeftHand
							{
								OFFSET 3.450000 0.000000 0.000000
								CHANNELS 3 Zrotation Yrotation Xrotation
								JOINT LeftHandIndex1
								{
									OFFSET 0.750000 0.000000 0.000000
									CHANNELS 3 Zrotation Yrotation Xrotation
									End Site
									{
										OFFSET 0.000000 0.000000 0.000000
									}
								}
							}
						}
					}
				}
				JOINT RightShoulder
				{
					OFFSET 0.000000 0.000000 0.000000
					CHANNELS 3 Zrotation Yrotation Xrotation
					JOINT RightArm
					{
						OFFSET -2.700000 1.550000 -0.730000
						CHANNELS 3 Zrotation Yrotation Xrotation
						JOINT RightForeArm
						{
							OFFSET -5.450000 0.000000 0.000000
							CHANNELS 3 Zrotation Yrotation Xrotation
							JOINT RightHand
							{
								OFFSET -3.450000 0.000000 0.000000
								CHANNELS 3 Zrotation Yrotation Xrotation
								JOINT RightHandIndex1
								{
									OFFSET -0.750000 0.000000 0.000000
									CHANNELS 3 Zrotation Yrotation Xrotation
									End Site
									{
										OFFSET 0.000000 0.000000 0.000000
									}
								}
							}
						}
					}
				}
			}
		}
	}
}
MOTION
Frames: 10
Frame Time: 0.016667
-0.369980 17.224420 -1.941620 6.678913 -10.116258 0.944623 -15.374811 12.585390 4.700303 1.316132 -5.978960 -34.447356 -9.241676 2.303803 -1.742845 -0.830326 2.607479 3.915643 0.498350 0.165030 0.203500 18.097834 -10.425969 2.251749 -1.545888 0.891507 -11.688233 2.647190 -4.760807 19.577086 -0.288894 -3.439826 3.464997 0.124630 0.525110 0.202330 -2.882504 -2.773021 -8.091906 -0.286793 5.116994 17.901929 -0.232980 6.205278 9.298826 -2.072541 -11.598404 -13.528770 -30.805788 4.804804 37.882803 4.376790 -7.806270 -16.186350 5.841483 -21.846566 1.933462 -12.306540 -34.080061 -0.596978 53.784658 -71.320722 -36.797895 -3.092230 1.817925 0.705900 0.086610 0.027190 0.473340 -0.989916 34.076239 10.244579 19.180838 25.179419 -6.375114 8.533258 79.152405 4.047686 1.577937 -1.539267 -0.310530 0.551160 -0.112050 0.000150 
-0.371260 17.171670 -1.938470 6.433432 -9.270820 0.974049 -15.323162 12.542796 4.661774 1.086715 -6.109271 -35.033817 -9.129482 2.645562 0.456909 -0.920041 2.647057 3.915105 0.490690 0.151440 0.200510 18.152148 -10.489025 2.281492 -1.435469 0.872606 -11.498164 2.948040 -4.900007 19.811145 -0.274338 -3.537910 3.430232 0.163750 0.583390 0.181190 -3.048273 -2.596203 -8.053470 0.769110 4.677057 17.534845 -0.966325 5.993106 9.998414 -2.611739 -11.452085 -13.047650 -29.977416 4.526948 37.482708 4.330290 -7.937560 -15.216100 6.057847 -22.448472 1.778834 -13.782061 -35.801102 0.156429 48.447185 -67.536815 -31.439454 -3.199917 1.986915 0.693960 0.129870 -0.023660 0.469220 -0.462443 34.173844 9.805619 20.970944 26.810256 -6.666431 -1.852384 75.992814 -3.334740 1.490115 -1.366147 -0.366110 0.606770 -0.084980 -0.013230 
-0.369710 17.078910 -1.927560 5.606590 -9.837261 0.530513 -15.186409 12.473522 4.485734 2.002879 -5.634673 -35.080364 -9.234593 3.434312 4.733410 -0.989684 2.838980 3.827819 0.581780 0.268040 0.257060 18.281971 -10.680629 2.370820 -0.745663 0.897068 -10.879367 2.858207 -4.937234 20.455540 -0.306478 -3.724446 3.342823 0.283850 0.595120 0.180840 -3.433854 -2.066408 -7.946547 3.520817 4.444558 17.239906 -2.643960 6.403459 11.603103 -3.299534 -11.247614 -12.011034 -28.531202 3.547247 36.780265 3.092430 -8.012250 -14.850780 5.662832 -23.474317 1.130645 -16.538635 -39.513561 1.926364 41.267348 -60.027519 -23.947666 -3.305578 2.205147 0.648200 0.170490 -0.043620 0.492000 0.572598 34.565531 9.061049 22.939364 30.057302 -6.345133 -13.161146 69.122229 -9.611843 1.390473 -1.217949 -0.375820 0.636710 -0.119780 -0.018490 
-0.364840 16.994310 -1.914830 4.256920 -10.860038 -0.094102 -15.005353 12.426859 4.253945 3.187630 -5.043440 -35.252715 -8.254502 4.571679 11.546102 -1.060238 3.287684 3.637313 0.656660 0.342580 0.301220 18.450632 -10.930835 2.510949 0.581048 1.038046 -10.362278 2.183620 -4.875305 21.757747 -0.349522 -3.950232 3.227468 0.383900 0.623980 0.207550 -3.938901 -1.405745 -7.845073 7.267482 4.023022 17.385252 -4.862971 6.845345 13.240365 -3.638230 -10.956487 -11.387398 -27.146096 2.932840 36.519602 2.049340 -8.034450 -14.084600 3.640184 -25.894536 0.490712 -19.117253 -43.328894 4.109646 34.904922 -49.707964 -17.187999 -3.451848 2.345970 0.626290 0.220730 -0.070900 0.505250 2.633115 35.964645 8.759152 23.393801 33.532306 -5.389965 -20.951829 59.982862 -11.925923 1.334150 -1.164352 -0.394500 0.655740 -0.124280 -0.033740 
-0.379450 16.939260 -1.892110 2.815311 -11.972487 -0.649429 -14.851522 12.374814 4.023078 4.691442 -4.436032 -34.814607 -7.427764 5.823915 18.479967 -1.082247 4.093729 3.317490 0.772940 0.456850 0.377640 18.608476 -11.098683 2.639449 2.111750 1.480641 -10.289751 1.643362 -4.883439 24.221296 -0.428389 -4.256913 3.086743 0.505130 0.639230 0.238300 -4.396747 -0.857115 -7.750307 10.616087 3.399605 17.509579 -6.552217 7.044408 15.003806 -3.970554 -11.259566 -10.896003 -27.078301 2.685192 35.436918 0.723670 -8.009110 -14.185070 -0.317574 -28.312342 0.143731 -22.438561 -46.768635 6.726241 31.269353 -39.505361 -13.201666 -3.600451 2.403357 0.616790 0.260850 -0.079670 0.535930 6.720696 37.553756 8.494098 22.793619 36.760897 -3.646110 -21.494433 51.426862 -10.335336 1.370453 -1.245511 -0.405210 0.685010 -0.154750 -0.050770 
-0.403060 16.906640 -1.865240 1.896933 -12.634419 -1.083835 -14.786624 12.389512 3.878833 5.510417 -4.169086 -34.070794 -6.597409 7.016618 24.886801 -1.055693 4.996304 2.937742 0.898900 0.607940 0.477740 18.681635 -11.120957 2.734850 3.320442 2.278527 -11.062150 1.172268 -4.928111 27.877339 -0.542566 -4.568352 2.925303 0.625630 0.594370 0.238050 -4.603076 -0.685757 -7.729514 11.847127 2.664325 17.464836 -7.559983 6.813378 17.094817 -3.896012 -11.469627 -11.218574 -27.379752 3.194026 35.185069 0.291430 -7.643800 -16.173180 -4.140412 -30.282512 0.858461 -27.665756 -49.072466 8.458197 31.882388 -33.134448 -12.707844 -3.655131 2.388815 0.643870 0.238730 -0.034140 0.543930 10.275082 38.772299 8.690555 24.844648 40.442483 -1.706413 -22.259847 43.140113 -9.518290 1.430813 -1.253965 -0.401940 0.729300 -0.194940 -0.071490 
-0.427710 16.884840 -1.830230 1.216747 -12.106745 -0.908131 -14.794618 12.455471 3.797772 5.293970 -4.223542 -33.662244 -4.913076 7.730983 30.503526 -0.981751 5.782146 2.619154 0.965850 0.698180 0.524010 18.687488 -10.944180 2.886368 4.073859 3.907071 -13.514814 2.166222 -5.672362 33.444606 -0.694123 -5.145593 2.699073 0.684930 0.569770 0.246960 -4.614420 -0.892478 -7.825665 11.976429 1.912826 17.150601 -7.965570 6.318368 19.087518 -3.386828 -11.371765 -12.837597 -27.748469 4.325592 35.896392 -0.129500 -6.929050 -17.126080 -7.169165 -31.574723 2.625967 -34.039769 -50.971108 9.697895 31.271830 -30.282502 -12.480165 -3.667530 2.381140 0.668930 0.229430 0.009080 0.553190 12.685419 39.296792 9.925083 29.387511 43.435403 -0.829692 -25.005600 37.205573 -10.278601 1.448707 -1.259028 -0.390880 0.761280 -0.211450 -0.079830 
-0.462080 16.886140 -1.795490 0.723407 -11.197700 -0.760950 -14.886799 12.611085 3.670135 4.909315 -3.998886 -32.806236 -3.115263 8.288681 35.171272 -0.854817 6.438127 2.335284 1.002990 0.738690 0.571680 18.605803 -10.570706 3.199271 4.146125 6.546946 -17.222916 4.373273 -7.165929 40.333693 -0.935588 -6.036922 2.368823 0.678930 0.479650 0.240400 -4.374217 -1.410047 -8.060789 10.684054 1.580982 17.808248 -7.183524 6.067667 20.147030 -2.389021 -11.406128 -15.039369 -29.498851 5.923865 38.077712 -0.248170 -6.398770 -18.608410 -10.611858 -31.487172 4.950825 -42.388260 -53.306367 11.197447 29.699044 -30.619930 -12.549724 -3.569663 2.401785 0.736320 0.155310 0.083070 0.533050 14.860365 39.405080 11.304416 34.696102 44.980839 -1.152152 -25.510820 35.009535 -10.603049 1.480821 -1.256439 -0.362010 0.750140 -0.227320 -0.101280 
-0.494390 16.894540 -1.757160 0.736141 -8.657527 -0.651308 -15.010048 12.679331 3.469623 3.558445 -4.132536 -31.575195 -0.473292 7.952994 38.616173 -0.777926 6.744814 2.190244 1.099950 0.817560 0.684790 18.522959 -10.120162 3.571985 2.312503 9.229088 -21.871913 8.655440 -10.136022 46.514476 -1.285578 -7.216710 1.935765 0.693740 0.356990 0.235030 -4.113116 -1.887902 -8.223443 8.607721 1.008825 18.524143 -6.278770 5.354578 20.469182 -1.869710 -11.106147 -15.884075 -29.971041 7.062723 40.206547 0.943420 -6.172560 -21.712170 -13.378011 -30.572195 6.046913 -49.879539 -51.585340 10.025588 25.092429 -35.305010 -12.431869 -3.401729 2.451988 0.851940 0.034270 0.194620 0.521460 17.094655 38.506241 12.098749 42.410809 44.327359 -2.412538 -24.825790 36.566946 -11.396631 1.503770 -1.245350 -0.330280 0.746680 -0.281430 -0.132610 
-0.518670 16.895940 -1.713990 0.219153 -4.219282 -0.479181 -15.048378 12.629777 3.168897 2.094690 -4.286294 -29.986142 3.017027 6.404962 39.241576 -0.791034 6.445126 2.272951 1.111290 0.808140 0.730800 18.532418 -9.739046 4.006010 -1.106522 11.181997 -26.486814 15.583611 -15.047309 50.578654 -1.688664 -8.682886 1.442218 0.656880 0.250470 0.208390 -4.125749 -2.059921 -8.305032 8.488110 -0.406932 19.353610 -6.837168 3.873952 19.176600 -1.008067 -10.793706 -15.599038 -30.271375 8.300121 42.846915 2.106650 -6.071930 -23.873070 -15.492509 -29.175353 6.478189 -55.496639 -45.636677 6.338066 16.490710 -43.004212 -11.380358 -3.255820 2.527194 0.954170 -0.078580 0.267230 0.479520 17.716425 36.869495 11.841702 51.333567 40.545349 -4.770626 -21.606023 42.932864 -12.418823 1.525724 -1.185607 -0.320390 0.726610 -0.289540 -0.164700 
